<mxfile host="app.diagrams.net" modified="2023-10-11T08:28:40.224Z" agent="Mozilla/5.0 (Windows NT 10.0; Win64; x64) AppleWebKit/537.36 (KHTML, like Gecko) Chrome/117.0.0.0 Safari/537.36 Edg/117.0.2045.55" version="22.0.4" etag="XBgan4VjPK-IyO2gI2Pw" type="github">
  <diagram name="Seite-1" id="GeBbiCZaUU-AVBQAe2V_">
    <mxGraphModel>
      <root>
        <mxCell id="0" />
        <mxCell id="1" parent="0" />
      </root>
    </mxGraphModel>
  </diagram>
</mxfile>
